<svg xmlns="http://www.w3.org/2000/svg" xmlns:xlink="http://www.w3.org/1999/xlink" version="1.1" x="0px" y="0px" viewBox="0 0 100 125" enable-background="new 0 0 100 100" xml:space="preserve"><path d="M85.161,14.994v-10h-5v10h-7.5v-0.173l-9.827-9.827h-1.845l10,10h-1.858l-10-10h-1.845l10,10h-1.858l-10-10h-0.267v1.578  l8.422,8.422h-1.858l-6.563-6.564v1.845l4.719,4.719h-1.858l-2.861-2.86v1.845l1.016,1.016h-1.016v0.843v1.845v1.858v0.454v1.391  l6.109,6.109h-1.858l-4.251-4.251v1.845l2.406,2.406h-1.858l-0.548-0.548v0.548h-0.594l0.581,0.581v1.847l-2.428-2.428h-0.714H50.86  l4.288,4.288v1.847l-6.135-6.135h-0.71h-1.15l7.995,7.996v1.847l-9.842-9.842h-0.145h-0.561l-7.5-7.5h1.858l6.203,6.203v-1.845  l-4.358-4.358h1.858l2.5,2.5V20.65l-0.655-0.655h0.655v-1.203v-1.845v-1.858v-0.094v-1.751l-8.249-8.249h-1.845l10,10h-1.858l-10-10  h-1.845l10,10h-1.858l-10-10h-1.845l10,10h-1.858l-8.142-8.142v1.845l6.297,6.297h-1.858l-4.439-4.439v1.845l2.594,2.594h-1.858  l-0.736-0.735v0.735h-7.5v-10h-5v10h-10v5h10v8.888l-1.388-1.388h-1.845l3.233,3.233v1.853l-5.086-5.086H8.23l6.931,6.931v1.853  l-8.783-8.783H5.161v0.628l10,10v1.853l-10-10v1.845l10,10v1.853l-10-10v1.845l9.477,9.477h0.523h1.321h1.853h1.826h0.019  l-0.019-0.019v-1.853l1.872,1.872h1.845l-3.717-3.717v-1.853l5.569,5.569h1.845l-7.414-7.414v-1.853l7.5,7.5v1.767v0.081  l9.919,9.919L37.585,55h-1.847l-0.006-0.006l-8.072-8.072v0.003v1.853v0.005l6.212,6.212L33.878,55h-1.847l-0.006-0.006  l-4.365-4.365v1.846v0.014l2.505,2.505L30.171,55h-1.847l-0.006-0.006l-0.658-0.658v0.658v1.179l-1.179-1.179h-1.845l3.023,3.023  v1.853l-4.876-4.876H20.94l6.721,6.721v1.853l-7.5-7.5v-1.074h-1.074h-1.845h-1.853h-0.228h-1.616l1.616,1.616v1.853l-3.469-3.469  H9.847l5.314,5.314v1.853l-7.167-7.167H6.149l9.012,9.012v1.853l-10-10v1.845l10,10v1.853l-10-10v1.845l10,10v8.593h-10v5h10v10h5  v-10h8.594l10,10h1.845l-10-10h1.858l10,10h1.845l-10-10h1.858l9,9V92.15l-7.155-7.155h1.858l5.297,5.297v-1.845l-3.452-3.452h1.858  l1.594,1.594v-1.594v-0.251v-1.858V81.04v-1.046h-1.046l-7.5-7.5h1.858l6.688,6.688v-1.845l-4.843-4.843h1.858l2.984,2.984v-1.845  l-1.139-1.14h1.139h0.658l-0.658-0.658l-0.024-0.024v-1.847l0.024,0.024l2.505,2.505h0.059h1.801l-4.365-4.365l-0.024-0.024v-1.847  l0.024,0.024l6.212,6.212h0.055h1.805l-8.072-8.072l-0.024-0.024v-1.847l0.024,0.024l9.919,9.919h0.051h0.03h1.828l7.5,7.5h-1.858  l-7.47-7.47v1.845l5.625,5.625h-1.858l-3.767-3.767v1.845l1.922,1.922h-1.858l-0.064-0.064v0.064v1.781v1.858v1.36v0.484  l9.516,9.516h1.845l-10-10h1.858l10,10h1.845l-10-10h1.858l10,10h0.563v-1.282l-8.718-8.718h1.858l6.859,6.859v-1.845l-5.015-5.015  h1.858l3.156,3.156v-1.845l-1.312-1.312h8.827v10h5v-10h10v-5h-10v-7.5h0.752l-0.752-0.752V69.89l2.605,2.605h1.845l-4.45-4.45  v-1.853l6.302,6.302h1.845l-8.147-8.147v-1.853l10,10V70.65l-10-10v-1.853l10,10v-1.845l-10-10v-1.853l10,10v-1.845l-8.26-8.26  h-1.74h-0.105h-1.853h-1.845h-1.198v0.655l-0.655-0.655h-1.845l2.5,2.5v1.853l-4.353-4.353h-1.845l6.198,6.198v1.853l-7.5-7.5v-0.55  V54.85l-9.855-9.855L62.8,44.989h1.847l0.006,0.006l8.009,8.009v-1.156v-0.704l-6.148-6.148l-0.006-0.006h1.847l0.006,0.006  l4.301,4.301V48.15v-0.714l-2.441-2.441l-0.006-0.006h1.847l0.006,0.006l0.594,0.594v-0.594h0.543l-0.543-0.542v-1.853l2.395,2.395  h1.845l-4.24-4.24v-1.853l6.093,6.093h1.407h0.438h1.853h1.845h0.865v-0.988l0.988,0.988h1.845l-2.833-2.833v-1.853l4.686,4.686  h1.845l-6.531-6.531v-1.853l8.384,8.384h1.616v-0.228l-10-10v-1.853l10,10v-1.845l-10-10v-1.853l10,10v-1.845l-9.876-9.876h-0.124  v-7.5h10v-5H85.161z M20.161,57.913l7.5,7.5v1.853l-7.5-7.5V57.913z M20.161,61.611l7.5,7.5v1.853l-7.5-7.5V61.611z M33.006,79.994  l-5.345-5.345l-0.016-0.016v1.845l0.016,0.016l3.5,3.5h-1.858l-1.642-1.642l-0.016-0.016v1.657h-7.484v-7.5h1.635l-1.635-1.635  v-1.853l3.488,3.488h1.845l-5.333-5.333v-1.853l7.186,7.186h0.314v0.297l7.203,7.203H33.006z M36.709,79.994l-7.5-7.5h1.858l7.5,7.5  H36.709z M42.27,79.994h-1.858l-7.5-7.5h1.858L42.27,79.994z M57.232,44.989l0.006,0.006l10,10L67.243,55h-1.847l-0.006-0.006  l-10-10l-0.005-0.006H57.232z M70.037,79.994l-7.5-7.5h1.858l7.5,7.5H70.037z M45.137,29.186l0.024,0.024l9.987,9.987v1.847  l-9.987-9.987l-0.024-0.024V29.186z M45.137,32.893l0.024,0.024l9.987,9.987v1.847l-9.987-9.987l-0.024-0.024V32.893z M45.137,36.6  l0.024,0.024l18.37,18.37L63.536,55h-1.847l-0.006-0.006L45.161,38.472l-0.024-0.024V36.6z M45.137,40.308l0.024,0.024  l14.663,14.662L59.829,55h-1.847l-0.006-0.006L45.161,42.179l-0.024-0.024V40.308z M35.255,19.994l7.5,7.5h-1.858l-7.5-7.5H35.255z   M31.551,19.994l7.5,7.5h-1.858l-7.5-7.5H31.551z M27.661,41.382l-7.5-7.5V32.03l7.5,7.5V41.382z M27.661,37.685l-7.5-7.5v-1.853  l7.5,7.5V37.685z M27.661,27.494h-0.942l0.942,0.942v1.853l-2.795-2.795h-1.845l4.64,4.64v1.853l-6.493-6.493h-1.007v-7.5h7.688  l7.5,7.5H33.49l-5.829-5.829v1.845l3.984,3.984h-1.858l-2.126-2.126v1.845l0.281,0.281H27.661z M39.446,55l-0.006-0.006l-10-10  l-0.006-0.006h1.847l0.005,0.006l10,10L41.293,55H39.446z M43.153,55l-0.006-0.006l-10-10l-0.006-0.006h1.847l0.005,0.006l10,10  L45,55H43.153z M55.148,70.702l-9.987-9.987l-0.024-0.024v-1.847l0.024,0.024l9.987,9.987V70.702z M55.148,66.995l-9.987-9.987  l-0.024-0.024v-1.847l0.024,0.024l9.987,9.987V66.995z M55.148,63.287L36.855,44.994l-0.006-0.006h1.847l0.006,0.006l16.446,16.446  V63.287z M55.148,59.58L40.562,44.994l-0.006-0.006h1.847l0.006,0.006l12.739,12.739V59.58z M55.161,55h-0.013v0.873L44.269,44.994  l-0.006-0.006h0.873v-0.974l0.024,0.024l10.955,10.955L56.122,55H55.161z M58.834,72.494h1.858l7.5,7.5h-1.858L58.834,72.494z   M80.161,79.994h-7.516V78.9l-6.405-6.405h1.858l4.547,4.547v-1.845l-2.702-2.702h1.858l0.844,0.844v-0.844h0.016V72.18l0.314,0.314  h1.845l-2.159-2.159v-1.853l4.012,4.012h1.845l-5.857-5.856v-1.853l7.5,7.5V79.994z M80.161,70.44l-7.5-7.5v-1.853l7.5,7.5V70.44z   M80.161,64.89v1.853l-7.5-7.5V57.39L80.161,64.89z M70.945,54.994L70.951,55h-1.847l-0.006-0.006l-10-10l-0.006-0.006h1.847  l0.006,0.006L70.945,54.994z M63.115,27.494l-7.5-7.5h1.858l7.5,7.5H63.115z M66.818,27.494l-7.5-7.5h1.858l7.5,7.5H66.818z   M70.521,27.494l-7.5-7.5h1.858l7.5,7.5H70.521z M80.161,44.557l-7.5-7.5v-1.853l7.5,7.5V44.557z M80.161,40.859l-7.5-7.5v-1.853  l7.5,7.5V40.859z M80.161,37.161l-7.5-7.5v-1.853l7.5,7.5V37.161z M80.161,29.766l-2.272-2.272h-1.845l4.116,4.116v1.853  l-5.969-5.969h-1.531v-1.563l-5.937-5.937h1.858l4.078,4.078v-1.845l-2.233-2.233h1.858l0.375,0.375v-0.375h7.5v7.5h-0.419  l0.419,0.419V29.766z"/><polygon points="27.661,94.994 29.49,94.994 27.661,93.165 "/><polygon points="27.645,89.447 27.645,91.291 27.661,91.307 31.348,94.994 33.193,94.994 27.661,89.462 "/><polygon points="27.645,85.743 27.645,87.588 27.661,87.604 35.051,94.994 36.896,94.994 27.661,85.759 "/><polygon points="55.161,94.994 55.412,94.994 55.161,94.743 "/><polygon points="55.161,92.885 57.27,94.994 59.115,94.994 55.161,91.04 "/><polygon points="55.161,89.182 60.973,94.994 62.818,94.994 55.161,87.337 "/><polygon points="72.661,11.118 66.537,4.994 64.692,4.994 72.661,12.963 "/><polygon points="72.661,7.415 70.24,4.994 68.395,4.994 72.661,9.26 "/><polygon points="72.661,4.994 72.098,4.994 72.661,5.557 "/><polygon points="5.161,70.65 5.161,72.494 7.006,72.494 "/><polygon points="10.703,72.494 5.161,66.952 5.161,68.797 8.858,72.494 "/><polygon points="14.401,72.494 5.161,63.254 5.161,65.099 12.556,72.494 "/><polygon points="88.754,54.994 95.161,61.402 95.161,59.557 90.599,54.994 "/><polygon points="92.451,54.994 95.161,57.704 95.161,55.859 94.296,54.994 "/><polygon points="87.137,27.494 95.161,35.518 95.161,33.673 88.982,27.494 "/><polygon points="90.835,27.494 95.161,31.82 95.161,29.975 92.68,27.494 "/><polygon points="95.161,28.123 95.161,27.494 94.533,27.494 "/><polygon points="5.161,44.766 5.161,44.994 5.389,44.994 "/><polygon points="9.087,44.994 5.161,41.068 5.161,42.913 7.242,44.994 "/><polygon points="12.785,44.994 5.161,37.371 5.161,39.215 10.94,44.994 "/><polygon points="45.161,9.54 40.615,4.994 38.77,4.994 45.161,11.385 "/><polygon points="45.161,5.837 44.318,4.994 42.473,4.994 45.161,7.682 "/><text x="0" y="115" fill="#000000" font-size="5px" font-weight="bold" font-family="'Helvetica Neue', Helvetica, Arial-Unicode, Arial, Sans-serif">Created by Wes Breazell</text><text x="0" y="120" fill="#000000" font-size="5px" font-weight="bold" font-family="'Helvetica Neue', Helvetica, Arial-Unicode, Arial, Sans-serif">from the Noun Project</text></svg>